<mxfile host="app.diagrams.net" modified="2023-11-09T06:51:15.130Z" agent="Mozilla/5.0 (Windows NT 10.0; Win64; x64) AppleWebKit/537.36 (KHTML, like Gecko) Chrome/119.0.0.0 Safari/537.36" etag="h3Sukbrdo34lW1ZdgEWc" version="22.1.0" type="device">
  <diagram name="Page-1" id="3pNNjOLLp-dWkewPeJOu">
    <mxGraphModel dx="1750" dy="2154" grid="1" gridSize="10" guides="1" tooltips="1" connect="1" arrows="1" fold="1" page="1" pageScale="1" pageWidth="827" pageHeight="1169" math="0" shadow="0">
      <root>
        <mxCell id="0" />
        <mxCell id="1" parent="0" />
        <mxCell id="THiizqAPoF9wOP60l3qA-25" style="rounded=0;orthogonalLoop=1;jettySize=auto;html=1;entryX=0;entryY=0.5;entryDx=0;entryDy=0;" parent="1" source="THiizqAPoF9wOP60l3qA-1" target="THiizqAPoF9wOP60l3qA-5" edge="1">
          <mxGeometry relative="1" as="geometry" />
        </mxCell>
        <mxCell id="THiizqAPoF9wOP60l3qA-26" style="rounded=0;orthogonalLoop=1;jettySize=auto;html=1;" parent="1" source="THiizqAPoF9wOP60l3qA-1" target="THiizqAPoF9wOP60l3qA-6" edge="1">
          <mxGeometry relative="1" as="geometry" />
        </mxCell>
        <mxCell id="WZ7u-tJCwtTSpRBeRJy0-2" style="rounded=0;orthogonalLoop=1;jettySize=auto;html=1;entryX=0;entryY=0.5;entryDx=0;entryDy=0;" parent="1" source="THiizqAPoF9wOP60l3qA-1" target="WZ7u-tJCwtTSpRBeRJy0-1" edge="1">
          <mxGeometry relative="1" as="geometry" />
        </mxCell>
        <mxCell id="WZ7u-tJCwtTSpRBeRJy0-4" style="rounded=0;orthogonalLoop=1;jettySize=auto;html=1;entryX=0;entryY=0;entryDx=0;entryDy=0;" parent="1" source="THiizqAPoF9wOP60l3qA-1" target="THiizqAPoF9wOP60l3qA-7" edge="1">
          <mxGeometry relative="1" as="geometry" />
        </mxCell>
        <mxCell id="WZ7u-tJCwtTSpRBeRJy0-10" style="rounded=0;orthogonalLoop=1;jettySize=auto;html=1;entryX=0;entryY=0.5;entryDx=0;entryDy=0;" parent="1" source="THiizqAPoF9wOP60l3qA-1" target="WZ7u-tJCwtTSpRBeRJy0-8" edge="1">
          <mxGeometry relative="1" as="geometry" />
        </mxCell>
        <object label="Doctor" Doctor="" id="THiizqAPoF9wOP60l3qA-1">
          <mxCell style="shape=umlActor;verticalLabelPosition=bottom;verticalAlign=top;html=1;outlineConnect=0;" parent="1" vertex="1">
            <mxGeometry x="30" y="160" width="30" height="60" as="geometry" />
          </mxCell>
        </object>
        <mxCell id="THiizqAPoF9wOP60l3qA-17" style="rounded=0;orthogonalLoop=1;jettySize=auto;html=1;entryX=0;entryY=0.5;entryDx=0;entryDy=0;" parent="1" source="THiizqAPoF9wOP60l3qA-4" target="THiizqAPoF9wOP60l3qA-7" edge="1">
          <mxGeometry relative="1" as="geometry">
            <mxPoint x="240" y="410" as="targetPoint" />
          </mxGeometry>
        </mxCell>
        <mxCell id="THiizqAPoF9wOP60l3qA-27" style="rounded=0;orthogonalLoop=1;jettySize=auto;html=1;entryX=0;entryY=1;entryDx=0;entryDy=0;" parent="1" source="THiizqAPoF9wOP60l3qA-4" target="THiizqAPoF9wOP60l3qA-5" edge="1">
          <mxGeometry relative="1" as="geometry">
            <mxPoint x="290" y="90" as="targetPoint" />
          </mxGeometry>
        </mxCell>
        <mxCell id="WZ7u-tJCwtTSpRBeRJy0-3" style="rounded=0;orthogonalLoop=1;jettySize=auto;html=1;entryX=0;entryY=1;entryDx=0;entryDy=0;" parent="1" source="THiizqAPoF9wOP60l3qA-4" target="WZ7u-tJCwtTSpRBeRJy0-1" edge="1">
          <mxGeometry relative="1" as="geometry" />
        </mxCell>
        <mxCell id="WZ7u-tJCwtTSpRBeRJy0-11" style="rounded=0;orthogonalLoop=1;jettySize=auto;html=1;entryX=0;entryY=1;entryDx=0;entryDy=0;" parent="1" source="THiizqAPoF9wOP60l3qA-4" target="WZ7u-tJCwtTSpRBeRJy0-8" edge="1">
          <mxGeometry relative="1" as="geometry" />
        </mxCell>
        <mxCell id="THiizqAPoF9wOP60l3qA-4" value="Patient" style="shape=umlActor;verticalLabelPosition=bottom;verticalAlign=top;html=1;outlineConnect=0;" parent="1" vertex="1">
          <mxGeometry x="30" y="490" width="30" height="60" as="geometry" />
        </mxCell>
        <mxCell id="THiizqAPoF9wOP60l3qA-5" value="Login" style="ellipse;whiteSpace=wrap;html=1;" parent="1" vertex="1">
          <mxGeometry x="414" y="120" width="120" height="80" as="geometry" />
        </mxCell>
        <mxCell id="THiizqAPoF9wOP60l3qA-6" value="Disease Diagnosis" style="ellipse;whiteSpace=wrap;html=1;" parent="1" vertex="1">
          <mxGeometry x="390" y="440" width="120" height="80" as="geometry" />
        </mxCell>
        <mxCell id="THiizqAPoF9wOP60l3qA-7" value="Download Diagnosis report" style="ellipse;whiteSpace=wrap;html=1;" parent="1" vertex="1">
          <mxGeometry x="380" y="630" width="120" height="80" as="geometry" />
        </mxCell>
        <mxCell id="THiizqAPoF9wOP60l3qA-20" style="rounded=0;orthogonalLoop=1;jettySize=auto;html=1;entryX=1;entryY=1;entryDx=0;entryDy=0;exitX=0;exitY=0.5;exitDx=0;exitDy=0;exitPerimeter=0;" parent="1" source="zOmUBv-HRwkejwHUCP7N-2" target="THiizqAPoF9wOP60l3qA-29" edge="1">
          <mxGeometry relative="1" as="geometry">
            <mxPoint x="920" y="336.01959999484825" as="sourcePoint" />
            <mxPoint x="400" y="39.999999999999886" as="targetPoint" />
          </mxGeometry>
        </mxCell>
        <mxCell id="WZ7u-tJCwtTSpRBeRJy0-5" style="rounded=0;orthogonalLoop=1;jettySize=auto;html=1;entryX=1;entryY=0.5;entryDx=0;entryDy=0;exitX=0;exitY=0.5;exitDx=0;exitDy=0;exitPerimeter=0;" parent="1" source="zOmUBv-HRwkejwHUCP7N-2" target="WZ7u-tJCwtTSpRBeRJy0-1" edge="1">
          <mxGeometry relative="1" as="geometry">
            <mxPoint x="920" y="339.5999999999999" as="sourcePoint" />
          </mxGeometry>
        </mxCell>
        <mxCell id="THiizqAPoF9wOP60l3qA-24" value="&amp;lt;&amp;lt;extend&amp;gt;&amp;gt;" style="endArrow=open;endSize=12;dashed=1;html=1;rounded=0;entryX=0.3;entryY=0.987;entryDx=0;entryDy=0;entryPerimeter=0;exitX=0.5;exitY=0;exitDx=0;exitDy=0;strokeWidth=2;fontSize=14;" parent="1" source="THiizqAPoF9wOP60l3qA-7" target="THiizqAPoF9wOP60l3qA-6" edge="1">
          <mxGeometry x="-0.0012" width="160" relative="1" as="geometry">
            <mxPoint x="290" y="390" as="sourcePoint" />
            <mxPoint x="340" y="540" as="targetPoint" />
            <mxPoint as="offset" />
          </mxGeometry>
        </mxCell>
        <mxCell id="THiizqAPoF9wOP60l3qA-29" value="User Authentication" style="ellipse;whiteSpace=wrap;html=1;" parent="1" vertex="1">
          <mxGeometry x="600" y="210" width="120" height="80" as="geometry" />
        </mxCell>
        <mxCell id="THiizqAPoF9wOP60l3qA-30" value="include" style="endArrow=open;endSize=12;dashed=1;html=1;rounded=0;exitX=1;exitY=1;exitDx=0;exitDy=0;entryX=0;entryY=0;entryDx=0;entryDy=0;strokeWidth=2;fontSize=14;" parent="1" source="THiizqAPoF9wOP60l3qA-5" target="THiizqAPoF9wOP60l3qA-29" edge="1">
          <mxGeometry width="160" relative="1" as="geometry">
            <mxPoint x="400" y="120" as="sourcePoint" />
            <mxPoint x="590" y="90" as="targetPoint" />
          </mxGeometry>
        </mxCell>
        <mxCell id="THiizqAPoF9wOP60l3qA-32" style="rounded=0;orthogonalLoop=1;jettySize=auto;html=1;entryX=1;entryY=0.5;entryDx=0;entryDy=0;exitX=-0.021;exitY=0.584;exitDx=0;exitDy=0;exitPerimeter=0;" parent="1" source="zOmUBv-HRwkejwHUCP7N-9" target="THiizqAPoF9wOP60l3qA-6" edge="1">
          <mxGeometry relative="1" as="geometry">
            <mxPoint x="920" y="595.7647058823527" as="sourcePoint" />
          </mxGeometry>
        </mxCell>
        <mxCell id="THiizqAPoF9wOP60l3qA-35" value="Diagnostic Expert System" style="shape=umlFrame;whiteSpace=wrap;html=1;pointerEvents=0;width=160;height=20;" parent="1" vertex="1">
          <mxGeometry x="150" y="-10" width="700" height="760" as="geometry" />
        </mxCell>
        <mxCell id="WZ7u-tJCwtTSpRBeRJy0-1" value="View Profile" style="ellipse;whiteSpace=wrap;html=1;" parent="1" vertex="1">
          <mxGeometry x="440" y="290" width="120" height="80" as="geometry" />
        </mxCell>
        <mxCell id="WZ7u-tJCwtTSpRBeRJy0-12" style="rounded=0;orthogonalLoop=1;jettySize=auto;html=1;entryX=1;entryY=0.5;entryDx=0;entryDy=0;" parent="1" source="WZ7u-tJCwtTSpRBeRJy0-6" target="WZ7u-tJCwtTSpRBeRJy0-9" edge="1">
          <mxGeometry relative="1" as="geometry">
            <mxPoint x="790" y="150" as="targetPoint" />
          </mxGeometry>
        </mxCell>
        <object label="Admin" Doctor="" id="WZ7u-tJCwtTSpRBeRJy0-6">
          <mxCell style="shape=umlActor;verticalLabelPosition=bottom;verticalAlign=top;html=1;outlineConnect=0;" parent="1" vertex="1">
            <mxGeometry x="920" y="70" width="30" height="60" as="geometry" />
          </mxCell>
        </object>
        <mxCell id="WZ7u-tJCwtTSpRBeRJy0-7" value="&amp;lt;&amp;lt;extend&amp;gt;&amp;gt;" style="endArrow=open;endSize=12;dashed=1;html=1;rounded=0;exitX=0;exitY=0.5;exitDx=0;exitDy=0;entryX=1;entryY=0.5;entryDx=0;entryDy=0;strokeWidth=2;fontSize=14;" parent="1" source="WZ7u-tJCwtTSpRBeRJy0-9" target="WZ7u-tJCwtTSpRBeRJy0-8" edge="1">
          <mxGeometry x="-0.088" y="-2" width="160" relative="1" as="geometry">
            <mxPoint x="600" y="121" as="sourcePoint" />
            <mxPoint x="620" y="60" as="targetPoint" />
            <mxPoint as="offset" />
          </mxGeometry>
        </mxCell>
        <mxCell id="WZ7u-tJCwtTSpRBeRJy0-8" value="Signup" style="ellipse;whiteSpace=wrap;html=1;" parent="1" vertex="1">
          <mxGeometry x="260" y="20" width="120" height="80" as="geometry" />
        </mxCell>
        <mxCell id="WZ7u-tJCwtTSpRBeRJy0-9" value="Certificate Verification" style="ellipse;whiteSpace=wrap;html=1;" parent="1" vertex="1">
          <mxGeometry x="600" y="60" width="120" height="80" as="geometry" />
        </mxCell>
        <mxCell id="WZ7u-tJCwtTSpRBeRJy0-19" value="&amp;lt;&amp;lt;extend&amp;gt;&amp;gt;" style="endArrow=open;endSize=12;dashed=1;html=1;rounded=0;entryX=1;entryY=1;entryDx=0;entryDy=0;strokeWidth=2;fontSize=14;exitX=0;exitY=0;exitDx=0;exitDy=0;" parent="1" source="WZ7u-tJCwtTSpRBeRJy0-20" target="WZ7u-tJCwtTSpRBeRJy0-1" edge="1">
          <mxGeometry x="-0.088" y="-2" width="160" relative="1" as="geometry">
            <mxPoint x="610" y="420" as="sourcePoint" />
            <mxPoint x="530" y="420" as="targetPoint" />
            <mxPoint as="offset" />
          </mxGeometry>
        </mxCell>
        <mxCell id="WZ7u-tJCwtTSpRBeRJy0-20" value="Edit information" style="ellipse;whiteSpace=wrap;html=1;" parent="1" vertex="1">
          <mxGeometry x="670" y="410" width="120" height="80" as="geometry" />
        </mxCell>
        <mxCell id="zOmUBv-HRwkejwHUCP7N-2" value="" style="strokeWidth=2;html=1;shape=mxgraph.flowchart.database;whiteSpace=wrap;" vertex="1" parent="1">
          <mxGeometry x="930" y="310" width="60" height="60" as="geometry" />
        </mxCell>
        <mxCell id="zOmUBv-HRwkejwHUCP7N-5" value="Database" style="text;html=1;strokeColor=none;fillColor=none;align=center;verticalAlign=middle;whiteSpace=wrap;rounded=0;" vertex="1" parent="1">
          <mxGeometry x="930" y="370" width="60" height="30" as="geometry" />
        </mxCell>
        <mxCell id="zOmUBv-HRwkejwHUCP7N-9" value="" style="whiteSpace=wrap;html=1;aspect=fixed;" vertex="1" parent="1">
          <mxGeometry x="930" y="550" width="80" height="80" as="geometry" />
        </mxCell>
        <mxCell id="zOmUBv-HRwkejwHUCP7N-10" value="" style="endArrow=none;html=1;rounded=0;entryX=1;entryY=0.25;entryDx=0;entryDy=0;exitX=0;exitY=0.25;exitDx=0;exitDy=0;" edge="1" parent="1" source="zOmUBv-HRwkejwHUCP7N-9" target="zOmUBv-HRwkejwHUCP7N-9">
          <mxGeometry width="50" height="50" relative="1" as="geometry">
            <mxPoint x="840" y="590" as="sourcePoint" />
            <mxPoint x="890" y="540" as="targetPoint" />
          </mxGeometry>
        </mxCell>
        <mxCell id="zOmUBv-HRwkejwHUCP7N-11" value="" style="endArrow=none;html=1;rounded=0;entryX=1;entryY=0.5;entryDx=0;entryDy=0;exitX=0;exitY=0.5;exitDx=0;exitDy=0;" edge="1" parent="1" source="zOmUBv-HRwkejwHUCP7N-9" target="zOmUBv-HRwkejwHUCP7N-9">
          <mxGeometry width="50" height="50" relative="1" as="geometry">
            <mxPoint x="930" y="590" as="sourcePoint" />
            <mxPoint x="1010" y="589.77" as="targetPoint" />
          </mxGeometry>
        </mxCell>
        <mxCell id="zOmUBv-HRwkejwHUCP7N-12" value="" style="endArrow=none;html=1;rounded=0;entryX=1;entryY=0.75;entryDx=0;entryDy=0;exitX=0;exitY=0.75;exitDx=0;exitDy=0;" edge="1" parent="1" source="zOmUBv-HRwkejwHUCP7N-9" target="zOmUBv-HRwkejwHUCP7N-9">
          <mxGeometry width="50" height="50" relative="1" as="geometry">
            <mxPoint x="930" y="610" as="sourcePoint" />
            <mxPoint x="1010" y="610" as="targetPoint" />
          </mxGeometry>
        </mxCell>
        <mxCell id="zOmUBv-HRwkejwHUCP7N-13" value="Diseases Predictor" style="text;html=1;strokeColor=none;fillColor=none;align=center;verticalAlign=middle;whiteSpace=wrap;rounded=0;" vertex="1" parent="1">
          <mxGeometry x="940" y="650" width="60" height="30" as="geometry" />
        </mxCell>
      </root>
    </mxGraphModel>
  </diagram>
</mxfile>
